<svg width="16" height="17" viewBox="0 0 16 17" fill="none" xmlns="http://www.w3.org/2000/svg">
<path d="M11.7526 9.70248C12.552 9.70248 13.2 10.3505 13.2 11.1499V11.7015H13.1958C13.1686 12.325 12.9977 13.107 12.2975 13.7459C11.5327 14.4438 10.2125 14.9 8.00005 14.9C5.78762 14.9 4.46743 14.4438 3.70261 13.7459C3.00242 13.107 2.8315 12.325 2.80431 11.7015H2.80005V11.1499C2.80005 10.3505 3.44809 9.70248 4.24749 9.70248H11.7526ZM5.20005 2.90001C4.53731 2.90001 4.00005 3.43726 4.00005 4.10001V7.30001C4.00005 7.96275 4.53731 8.50001 5.20005 8.50001H10.8C11.4628 8.50001 12 7.96275 12 7.30001V4.10001C12 3.43726 11.4628 2.90001 10.8 2.90001H8.40005C8.40005 2.90001 8.40005 2.74688 8.40005 2.50001C8.40005 2.25313 8.22096 2.10001 8.00005 2.10001C7.77914 2.10001 7.60005 2.28438 7.60005 2.50001C7.60005 2.71563 7.60005 2.90001 7.60005 2.90001H5.20005ZM5.60005 5.70001C5.60005 5.25818 5.95822 4.90001 6.40005 4.90001C6.84188 4.90001 7.20005 5.25818 7.20005 5.70001C7.20005 6.14183 6.84188 6.50001 6.40005 6.50001C5.95822 6.50001 5.60005 6.14183 5.60005 5.70001ZM8.80005 5.70001C8.80005 5.25818 9.15822 4.90001 9.60005 4.90001C10.0419 4.90001 10.4 5.25818 10.4 5.70001C10.4 6.14183 10.0419 6.50001 9.60005 6.50001C9.15822 6.50001 8.80005 6.14183 8.80005 5.70001Z" fill="white"/>
</svg>
