<svg width="16" height="16" viewBox="0 0 16 16" fill="none" xmlns="http://www.w3.org/2000/svg">
<path d="M6.76877 1.51801L7.5605 1.82959C7.84292 1.94074 8.15697 1.94074 8.4394 1.82959L9.23112 1.51801C10.2002 1.13663 11.2973 1.59105 11.7128 2.54596L12.0523 3.32612C12.1734 3.60442 12.3955 3.82649 12.6738 3.9476L13.454 4.28711C14.4089 4.70267 14.8633 5.79973 14.4819 6.7688L14.1703 7.56053C14.0592 7.84295 14.0592 8.15701 14.1703 8.43943L14.4819 9.23115C14.8633 10.2002 14.4089 11.2973 13.454 11.7128L12.6738 12.0524C12.3955 12.1735 12.1734 12.3955 12.0523 12.6738L11.7128 13.454C11.2973 14.4089 10.2002 14.8633 9.23112 14.4819L8.4394 14.1704C8.15697 14.0592 7.84292 14.0592 7.5605 14.1704L6.76877 14.4819C5.7997 14.8633 4.70264 14.4089 4.28708 13.454L3.94757 12.6738C3.82646 12.3955 3.60439 12.1735 3.32609 12.0524L2.54593 11.7128C1.59102 11.2973 1.1366 10.2002 1.51798 9.23115L1.82956 8.43943C1.94071 8.15701 1.94071 7.84295 1.82956 7.56053L1.51798 6.7688C1.1366 5.79973 1.59102 4.70267 2.54593 4.28711L3.32609 3.9476C3.60439 3.82649 3.82646 3.60442 3.94757 3.32612L4.28708 2.54596C4.70264 1.59105 5.7997 1.13663 6.76877 1.51801ZM10.0678 6.13423L7.1496 9.41717L5.84957 8.11714C5.69336 7.96093 5.4401 7.96093 5.28389 8.11714C5.12768 8.27335 5.12768 8.52661 5.28389 8.68282L6.88389 10.2828C7.04663 10.4456 7.31279 10.4377 7.46569 10.2657L10.6657 6.66573C10.8125 6.50061 10.7976 6.24778 10.6325 6.10102C10.4674 5.95425 10.2145 5.96912 10.0678 6.13423Z" fill="#2575C6"/>
<path d="M10.0678 6.13426L7.14962 9.41719L5.84959 8.11716C5.69338 7.96095 5.44012 7.96095 5.28391 8.11716C5.1277 8.27337 5.1277 8.52664 5.28391 8.68285L6.88391 10.2828C7.04664 10.4456 7.31281 10.4378 7.46571 10.2657L10.6657 6.66575C10.8125 6.50064 10.7976 6.24781 10.6325 6.10104C10.4674 5.95427 10.2146 5.96915 10.0678 6.13426Z" fill="white"/>
</svg>
