<svg width="21" height="22" viewBox="0 0 21 22" fill="none" xmlns="http://www.w3.org/2000/svg">
<path d="M9.77157 2.74346C12.113 0.399876 15.912 0.399876 18.2552 2.74302C20.5382 5.02609 20.5968 8.6913 18.4308 11.0452L18.2426 11.2426L9.44261 20.0408L9.40604 20.071C7.9448 21.3878 5.6908 21.3431 4.28343 19.9357C2.96441 18.6167 2.84229 16.554 3.91708 15.0973C3.94042 15.0519 3.96867 15.0082 4.00188 14.967L4.05544 14.9074L4.14234 14.8197L4.28343 14.6718L4.28634 14.6747L11.7221 7.22035C11.988 6.95373 12.4046 6.92897 12.6985 7.14643L12.7827 7.21894C13.0494 7.48485 13.0741 7.90148 12.8567 8.19538L12.7842 8.2796L5.18953 15.8927C4.4719 16.7683 4.52178 18.0626 5.33917 18.88C6.16824 19.709 7.48789 19.7485 8.36368 18.9984L17.1964 10.1679C18.9519 8.41028 18.9519 5.56104 17.1945 3.80368C15.4921 2.10124 12.7649 2.04804 10.9984 3.64408L10.8305 3.80368L10.818 3.81799L1.28167 13.3543C0.988779 13.6472 0.513906 13.6472 0.221013 13.3543C-0.045254 13.0881 -0.0694599 12.6714 0.148395 12.3778L0.221013 12.2937L9.76989 2.74302L9.77157 2.74346Z" fill="#8A8A8A"/>
</svg>
