<svg width="40" height="40" viewBox="0 0 40 40" fill="none" xmlns="http://www.w3.org/2000/svg">
<rect width="40" height="40" rx="20" fill="white" fill-opacity="0.07"/>
<path d="M16.9872 12.0658L16.2705 12.2819C14.967 12.6748 14.0096 13.7879 13.8162 15.1356C13.5192 17.2043 14.1834 19.6224 15.7839 22.3944C17.381 25.1606 19.1388 26.9432 21.0741 27.723C22.3437 28.2346 23.795 27.9591 24.7888 27.0179L25.3316 26.5039C26.0591 25.8149 26.1645 24.694 25.5783 23.8815L24.2217 22.0013C23.846 21.4807 23.1807 21.2568 22.5667 21.4445L20.516 22.0715L20.463 22.0819C20.2368 22.1149 19.7156 21.6259 19.0655 20.4998C18.3853 19.3217 18.2443 18.6329 18.4321 18.4553L19.4755 17.4824C20.2574 16.7533 20.4884 15.6072 20.0501 14.6321L19.3886 13.1607C18.9767 12.2444 17.9491 11.7759 16.9872 12.0658ZM18.4765 13.5707L19.138 15.0421C19.4008 15.6268 19.2623 16.3139 18.7935 16.7511L17.7476 17.7264C17.0785 18.3591 17.3001 19.4421 18.1994 20.9998C19.0456 22.4655 19.8176 23.1898 20.6471 23.0642L20.7715 23.0376L22.8591 22.4008C23.0637 22.3383 23.2855 22.4129 23.4107 22.5864L24.7673 24.4666C25.0605 24.8728 25.0077 25.4333 24.644 25.7778L24.1012 26.2918C23.3913 26.9641 22.3547 27.1609 21.4478 26.7955C19.7497 26.1112 18.1449 24.4839 16.6499 21.8944C15.1518 19.2996 14.5455 17.0925 14.806 15.2777C14.9442 14.3151 15.6281 13.52 16.5591 13.2393L17.2758 13.0233C17.7568 12.8783 18.2706 13.1126 18.4765 13.5707Z" fill="white"/>
</svg>
