<svg width="14" height="12" viewBox="0 0 14 12" fill="none" xmlns="http://www.w3.org/2000/svg">
<path d="M11.8909 0.681798C12.6527 0.478648 13.4001 1.05284 13.4001 1.84128V10.0901C13.4001 10.9091 12.5977 11.4875 11.8206 11.2285L8.01679 9.96052C7.63469 10.921 6.69699 11.6 5.6001 11.6C4.16416 11.6 3.0001 10.4359 3.0001 9V8.28829L1.42062 7.7618C0.930614 7.59847 0.600098 7.1399 0.600098 6.62338V4.61461C0.600098 4.07095 0.965598 3.59521 1.4909 3.45513L11.8909 0.681798ZM3.8001 8.55496V9C3.8001 9.99411 4.60599 10.8 5.6001 10.8C6.34302 10.8 6.98135 10.3496 7.25608 9.70696L3.8001 8.55496Z" fill="white"/>
</svg>
