<svg width="268" height="62" viewBox="0 0 268 62" fill="none" xmlns="http://www.w3.org/2000/svg">
<path d="M0 14C0 6.26802 6.26801 0 14 0H254C261.732 0 268 6.26801 268 14V58C268 60.2091 266.209 62 264 62H14C6.26802 62 0 55.732 0 48V14Z" fill="#6815A3"/>
<path d="M193.326 54H192.447V46.6992C192.268 46.8555 192 47.0215 191.645 47.1973C191.289 47.3691 190.953 47.5039 190.637 47.6016L190.391 46.834C190.844 46.7012 191.309 46.5039 191.785 46.2422C192.266 45.9805 192.664 45.7031 192.98 45.4102H193.326V54ZM198.008 54.1465C197.176 54.1465 196.531 53.7871 196.074 53.0684C195.621 52.3457 195.395 51.3145 195.395 49.9746C195.395 48.498 195.633 47.377 196.109 46.6113C196.59 45.8418 197.281 45.457 198.184 45.457C199.051 45.457 199.699 45.8164 200.129 46.5352C200.559 47.25 200.773 48.3262 200.773 49.7637C200.773 51.1816 200.531 52.2676 200.047 53.0215C199.562 53.7715 198.883 54.1465 198.008 54.1465ZM198.137 46.2012C197.535 46.2012 197.078 46.5117 196.766 47.1328C196.453 47.75 196.297 48.6777 196.297 49.916C196.297 51.0645 196.447 51.9316 196.748 52.5176C197.053 53.1035 197.502 53.3965 198.096 53.3965C198.682 53.3965 199.123 53.0977 199.42 52.5C199.721 51.9023 199.871 51.0195 199.871 49.8516C199.871 48.6367 199.727 47.7246 199.438 47.1152C199.152 46.5059 198.719 46.2012 198.137 46.2012ZM202.736 48.9844C202.557 48.9844 202.404 48.9238 202.279 48.8027C202.154 48.6816 202.092 48.5332 202.092 48.3574C202.092 48.1777 202.154 48.0293 202.279 47.9121C202.404 47.7949 202.557 47.7363 202.736 47.7363C202.912 47.7363 203.061 47.7949 203.182 47.9121C203.307 48.0293 203.369 48.1777 203.369 48.3574C203.369 48.5332 203.307 48.6816 203.182 48.8027C203.061 48.9238 202.912 48.9844 202.736 48.9844ZM202.736 54.123C202.557 54.123 202.404 54.0625 202.279 53.9414C202.154 53.8203 202.092 53.6719 202.092 53.4961C202.092 53.3242 202.154 53.1777 202.279 53.0566C202.404 52.9316 202.557 52.8691 202.736 52.8691C202.912 52.8691 203.061 52.9316 203.182 53.0566C203.307 53.1777 203.369 53.3242 203.369 53.4961C203.369 53.6719 203.307 53.8203 203.182 53.9414C203.061 54.0625 202.912 54.123 202.736 54.123ZM207.301 54.1465C206.469 54.1465 205.824 53.7871 205.367 53.0684C204.914 52.3457 204.688 51.3145 204.688 49.9746C204.688 48.498 204.926 47.377 205.402 46.6113C205.883 45.8418 206.574 45.457 207.477 45.457C208.344 45.457 208.992 45.8164 209.422 46.5352C209.852 47.25 210.066 48.3262 210.066 49.7637C210.066 51.1816 209.824 52.2676 209.34 53.0215C208.855 53.7715 208.176 54.1465 207.301 54.1465ZM207.43 46.2012C206.828 46.2012 206.371 46.5117 206.059 47.1328C205.746 47.75 205.59 48.6777 205.59 49.916C205.59 51.0645 205.74 51.9316 206.041 52.5176C206.346 53.1035 206.795 53.3965 207.389 53.3965C207.975 53.3965 208.416 53.0977 208.713 52.5C209.014 51.9023 209.164 51.0195 209.164 49.8516C209.164 48.6367 209.02 47.7246 208.73 47.1152C208.445 46.5059 208.012 46.2012 207.43 46.2012ZM213.828 54.1465C212.996 54.1465 212.352 53.7871 211.895 53.0684C211.441 52.3457 211.215 51.3145 211.215 49.9746C211.215 48.498 211.453 47.377 211.93 46.6113C212.41 45.8418 213.102 45.457 214.004 45.457C214.871 45.457 215.52 45.8164 215.949 46.5352C216.379 47.25 216.594 48.3262 216.594 49.7637C216.594 51.1816 216.352 52.2676 215.867 53.0215C215.383 53.7715 214.703 54.1465 213.828 54.1465ZM213.957 46.2012C213.355 46.2012 212.898 46.5117 212.586 47.1328C212.273 47.75 212.117 48.6777 212.117 49.916C212.117 51.0645 212.268 51.9316 212.568 52.5176C212.873 53.1035 213.322 53.3965 213.916 53.3965C214.502 53.3965 214.943 53.0977 215.24 52.5C215.541 51.9023 215.691 51.0195 215.691 49.8516C215.691 48.6367 215.547 47.7246 215.258 47.1152C214.973 46.5059 214.539 46.2012 213.957 46.2012ZM220.707 54L223.912 45.5977H224.844L228.049 54H227.041L226.174 51.668H222.547L221.715 54H220.707ZM222.846 50.8594H225.875L224.516 47.1445C224.488 47.0703 224.463 46.9844 224.439 46.8867C224.42 46.7891 224.398 46.6797 224.375 46.5586H224.346C224.322 46.6836 224.297 46.7949 224.27 46.8926C224.246 46.9863 224.221 47.0703 224.193 47.1445L222.846 50.8594ZM237.846 54H236.949V48.293C236.949 48.1094 236.955 47.8906 236.967 47.6367C236.979 47.3828 236.998 47.0918 237.025 46.7637H237.002C236.951 46.9473 236.904 47.1055 236.861 47.2383C236.818 47.3711 236.777 47.4805 236.738 47.5664L233.867 54H233.428L230.557 47.6074C230.514 47.5137 230.471 47.3965 230.428 47.2559C230.385 47.1113 230.342 46.9453 230.299 46.7578H230.27C230.285 46.9375 230.297 47.1543 230.305 47.4082C230.312 47.6621 230.316 47.9531 230.316 48.2812V54H229.443V45.5977H230.586L233.287 51.6738C233.369 51.8574 233.439 52.0273 233.498 52.1836C233.557 52.3359 233.602 52.4746 233.633 52.5996H233.668C233.742 52.3926 233.809 52.2109 233.867 52.0547C233.926 51.8945 233.98 51.7578 234.031 51.6445L236.756 45.5977H237.846V54Z" fill="#B7D9F3"/>
<path d="M253.662 45.6478C253.836 45.8369 253.827 46.1347 253.643 46.3129L246.363 53.3463C246.145 53.5568 245.803 53.5503 245.593 53.3317L243.132 50.7717C242.954 50.5866 242.956 50.2887 243.137 50.1063C243.317 49.9239 243.608 49.9261 243.786 50.1112L245.995 52.4089L253.013 45.6281C253.198 45.4499 253.488 45.4587 253.662 45.6478Z" fill="#B7D9F3"/>
<path fill-rule="evenodd" clip-rule="evenodd" d="M256.876 45.6496C257.049 45.8392 257.04 46.137 256.855 46.3147L249.511 53.3726C249.326 53.5503 249.035 53.5407 248.862 53.3511C248.688 53.1616 248.698 52.8638 248.883 52.6861L256.227 45.6282C256.412 45.4504 256.702 45.4601 256.876 45.6496Z" fill="#B7D9F3"/>
<path d="M73.4551 53.1709C72.4707 53.1709 71.7074 52.7493 71.165 51.9062C70.6273 51.0586 70.3584 49.8555 70.3584 48.2969C70.3584 46.5879 70.641 45.2845 71.2061 44.3867C71.7712 43.4844 72.5892 43.0332 73.6602 43.0332C74.6901 43.0332 75.4603 43.4525 75.9707 44.291C76.4857 45.125 76.7432 46.3805 76.7432 48.0576C76.7432 49.7074 76.4538 50.972 75.875 51.8516C75.2962 52.7311 74.4896 53.1709 73.4551 53.1709ZM73.6055 43.9834C72.9082 43.9834 72.3841 44.3389 72.0332 45.0498C71.6823 45.7562 71.5068 46.8203 71.5068 48.2422C71.5068 49.5638 71.6777 50.5573 72.0195 51.2227C72.3613 51.8835 72.8763 52.2139 73.5645 52.2139C74.2435 52.2139 74.7516 51.8766 75.0889 51.2021C75.4261 50.5277 75.5947 49.516 75.5947 48.167C75.5947 46.7725 75.4284 45.7266 75.0957 45.0293C74.763 44.332 74.2663 43.9834 73.6055 43.9834ZM81.002 53.1709C80.0176 53.1709 79.2542 52.7493 78.7119 51.9062C78.1742 51.0586 77.9053 49.8555 77.9053 48.2969C77.9053 46.5879 78.1878 45.2845 78.7529 44.3867C79.318 43.4844 80.1361 43.0332 81.207 43.0332C82.237 43.0332 83.0072 43.4525 83.5176 44.291C84.0326 45.125 84.29 46.3805 84.29 48.0576C84.29 49.7074 84.0007 50.972 83.4219 51.8516C82.8431 52.7311 82.0365 53.1709 81.002 53.1709ZM81.1523 43.9834C80.4551 43.9834 79.931 44.3389 79.5801 45.0498C79.2292 45.7562 79.0537 46.8203 79.0537 48.2422C79.0537 49.5638 79.2246 50.5573 79.5664 51.2227C79.9082 51.8835 80.4232 52.2139 81.1113 52.2139C81.7904 52.2139 82.2985 51.8766 82.6357 51.2021C82.973 50.5277 83.1416 49.516 83.1416 48.167C83.1416 46.7725 82.9753 45.7266 82.6426 45.0293C82.3099 44.332 81.8132 43.9834 81.1523 43.9834ZM86.3887 47.4082C86.1699 47.4082 85.9831 47.333 85.8281 47.1826C85.6732 47.0277 85.5957 46.8431 85.5957 46.6289C85.5957 46.4102 85.6732 46.2256 85.8281 46.0752C85.9831 45.9248 86.1699 45.8496 86.3887 45.8496C86.6074 45.8496 86.7943 45.9248 86.9492 46.0752C87.1042 46.2256 87.1816 46.4102 87.1816 46.6289C87.1816 46.8431 87.1042 47.0277 86.9492 47.1826C86.7943 47.333 86.6074 47.4082 86.3887 47.4082ZM86.3887 53.1504C86.1699 53.1504 85.9831 53.0752 85.8281 52.9248C85.6732 52.7699 85.5957 52.5853 85.5957 52.3711C85.5957 52.1615 85.6732 51.9792 85.8281 51.8242C85.9831 51.6693 86.1699 51.5918 86.3887 51.5918C86.6074 51.5918 86.7943 51.6693 86.9492 51.8242C87.1042 51.9792 87.1816 52.1615 87.1816 52.3711C87.1816 52.5853 87.1042 52.7699 86.9492 52.9248C86.7943 53.0752 86.6074 53.1504 86.3887 53.1504ZM88.6445 52.3369L89.1641 51.5303C89.5286 51.7673 89.8932 51.9404 90.2578 52.0498C90.627 52.1592 91.0007 52.2139 91.3789 52.2139C92.1081 52.2139 92.6527 52.0407 93.0127 51.6943C93.3773 51.348 93.5596 50.9059 93.5596 50.3682C93.5596 49.7028 93.3317 49.2106 92.876 48.8916C92.4202 48.568 91.7367 48.4062 90.8252 48.4062H90.0117V47.4561H90.7842C91.5908 47.4561 92.1947 47.3057 92.5957 47.0049C93.0013 46.7041 93.2041 46.2347 93.2041 45.5967C93.2041 45.0771 93.0446 44.6784 92.7256 44.4004C92.4111 44.1224 92.0329 43.9834 91.5908 43.9834C91.2126 43.9834 90.8503 44.0426 90.5039 44.1611C90.1621 44.2796 89.8294 44.4642 89.5059 44.7148L88.918 43.9697C89.3327 43.6462 89.7588 43.4092 90.1963 43.2588C90.6338 43.1084 91.1146 43.0332 91.6387 43.0332C92.459 43.0332 93.1152 43.2497 93.6074 43.6826C94.1042 44.1156 94.3525 44.708 94.3525 45.46C94.3525 46.0433 94.1885 46.5446 93.8604 46.9639C93.5368 47.3786 93.0492 47.6771 92.3975 47.8594V47.8867C93.0628 47.9596 93.6143 48.2057 94.0518 48.625C94.4893 49.0397 94.708 49.5889 94.708 50.2725C94.708 51.1748 94.4072 51.8835 93.8057 52.3984C93.2087 52.9134 92.4294 53.1709 91.4678 53.1709C90.9346 53.1709 90.4424 53.1048 89.9912 52.9727C89.54 52.8405 89.0911 52.6286 88.6445 52.3369ZM96.3008 53V52.5146C96.3008 52.0954 96.3464 51.7262 96.4375 51.4072C96.5286 51.0882 96.679 50.7852 96.8887 50.498C97.0983 50.2109 97.3717 49.9238 97.709 49.6367C98.0508 49.3496 98.4678 49.026 98.96 48.666C99.3154 48.4108 99.6117 48.167 99.8486 47.9346C100.09 47.7021 100.284 47.4697 100.43 47.2373C100.557 47.0459 100.655 46.8249 100.724 46.5742C100.797 46.3236 100.833 46.0661 100.833 45.8018C100.833 45.264 100.678 44.8265 100.368 44.4893C100.058 44.152 99.6322 43.9834 99.0898 43.9834C98.6523 43.9834 98.2399 44.0654 97.8525 44.2295C97.4697 44.3936 97.112 44.6465 96.7793 44.9883L96.0957 44.332C96.5241 43.89 96.9867 43.5641 97.4834 43.3545C97.9801 43.1403 98.5361 43.0332 99.1514 43.0332C100.072 43.0332 100.771 43.3021 101.25 43.8398C101.733 44.3776 101.975 44.9997 101.975 45.7061C101.975 46.0661 101.924 46.4147 101.824 46.752C101.729 47.0846 101.592 47.3809 101.414 47.6406C101.232 47.9232 101.008 48.1943 100.744 48.4541C100.48 48.7139 100.165 48.9782 99.8008 49.2471C99.3405 49.5661 98.96 49.8395 98.6592 50.0674C98.363 50.2952 98.1283 50.5072 97.9551 50.7031C97.7773 50.9036 97.652 51.1042 97.5791 51.3047C97.5062 51.5052 97.4697 51.7354 97.4697 51.9951H102.351V53H96.3008Z" fill="#B7D9F3"/>
<circle cx="32.5" cy="30.5" r="22.5" fill="white"/>
<path d="M39.361 29.2503C40.3457 29.7917 40.3457 31.2065 39.361 31.7479L29.8615 36.9699C28.9118 37.492 27.75 36.8049 27.75 35.7212L27.75 25.277C27.75 24.1933 28.9118 23.5062 29.8615 24.0283L39.361 29.2503Z" fill="#6815A3"/>
<rect width="2" height="7" rx="1" transform="matrix(-1 0 0 1 257.5 28)" fill="white"/>
<rect width="2" height="7" rx="1" transform="matrix(-1 0 0 1 250.5 28)" fill="white"/>
<rect width="2" height="7" rx="1" transform="matrix(-1 0 0 1 254 28)" fill="white"/>
<rect width="2" height="7" rx="1" transform="matrix(-1 0 0 1 247 28)" fill="white"/>
<rect width="2" height="11" rx="1" transform="matrix(-1 0 0 1 243.5 24)" fill="white"/>
<rect width="2" height="14" rx="1" transform="matrix(-1 0 0 1 240 21)" fill="white"/>
<rect width="2" height="22" rx="1" transform="matrix(-1 0 0 1 236.5 13)" fill="white"/>
<rect width="2" height="22" rx="1" transform="matrix(-1 0 0 1 194.5 13)" fill="white"/>
<rect width="2" height="22" rx="1" transform="matrix(-1 0 0 1 229.5 13)" fill="white"/>
<rect width="2" height="22" rx="1" transform="matrix(-1 0 0 1 187.5 13)" fill="white"/>
<rect width="2" height="22" rx="1" transform="matrix(-1 0 0 1 222.5 13)" fill="white"/>
<rect width="2" height="22" rx="1" transform="matrix(-1 0 0 1 180.5 13)" fill="white"/>
<rect width="2" height="20" rx="1" transform="matrix(-1 0 0 1 215.5 15)" fill="white"/>
<rect width="2" height="22" rx="1" transform="matrix(-1 0 0 1 208.5 13)" fill="white"/>
<rect width="2" height="22" rx="1" transform="matrix(-1 0 0 1 117.5 13)" fill="white"/>
<rect width="2" height="20" rx="1" transform="matrix(-1 0 0 1 201.5 15)" fill="white"/>
<rect width="2" height="16" rx="1" transform="matrix(-1 0 0 1 110.5 19)" fill="white"/>
<rect width="2" height="21" rx="1" transform="matrix(-1 0 0 1 107 14)" fill="white"/>
<rect width="2" height="13" rx="1" transform="matrix(-1 0 0 1 103.5 22)" fill="white"/>
<rect width="2" height="11" rx="1" transform="matrix(-1 0 0 1 100 24)" fill="white"/>
<rect width="2" height="8" rx="1" transform="matrix(-1 0 0 1 96.5 27)" fill="white"/>
<rect width="2" height="8" rx="1" transform="matrix(-1 0 0 1 93 27)" fill="white"/>
<rect width="2" height="12" rx="1" transform="matrix(-1 0 0 1 89.5 23)" fill="white"/>
<rect width="2" height="15" rx="1" transform="matrix(-1 0 0 1 86 20)" fill="white"/>
<rect width="2" height="14" rx="1" transform="matrix(-1 0 0 1 82.5 21)" fill="white"/>
<rect width="2" height="14" rx="1" transform="matrix(-1 0 0 1 79 21)" fill="white"/>
<rect width="2" height="13" rx="1" transform="matrix(-1 0 0 1 75.5 22)" fill="white"/>
<rect width="2" height="11" rx="1" transform="matrix(-1 0 0 1 72 24)" fill="white"/>
<rect width="2" height="22" rx="1" transform="matrix(-1 0 0 1 233 13)" fill="white"/>
<rect width="2" height="22" rx="1" transform="matrix(-1 0 0 1 191 13)" fill="white"/>
<rect width="2" height="22" rx="1" transform="matrix(-1 0 0 1 226 13)" fill="white"/>
<rect width="2" height="22" rx="1" transform="matrix(-1 0 0 1 184 13)" fill="white"/>
<rect width="2" height="22" rx="1" transform="matrix(-1 0 0 1 219 13)" fill="white"/>
<rect width="2" height="22" rx="1" transform="matrix(-1 0 0 1 177 13)" fill="white"/>
<rect width="2" height="22" rx="1" transform="matrix(-1 0 0 1 170 13)" fill="white"/>
<rect width="2" height="20" rx="1" transform="matrix(-1 0 0 1 166.5 15)" fill="white"/>
<rect width="2" height="17" rx="1" transform="matrix(-1 0 0 1 152.5 18)" fill="white"/>
<rect width="2" height="17" rx="1" transform="matrix(-1 0 0 1 163 18)" fill="white"/>
<rect width="2" height="15" rx="1" transform="matrix(-1 0 0 1 149 20)" fill="white"/>
<rect width="2" height="15" rx="1" transform="matrix(-1 0 0 1 159.5 20)" fill="white"/>
<rect width="2" height="14" rx="1" transform="matrix(-1 0 0 1 145.5 21)" fill="white"/>
<rect width="2" height="11" rx="1" transform="matrix(-1 0 0 1 156 24)" fill="white"/>
<rect width="2" height="11" rx="1" transform="matrix(-1 0 0 1 138.5 24)" fill="white"/>
<rect width="2" height="11" rx="1" transform="matrix(-1 0 0 1 131.5 24)" fill="white"/>
<rect width="2" height="11" rx="1" transform="matrix(-1 0 0 1 135 24)" fill="white"/>
<rect width="2" height="11" rx="1" transform="matrix(-1 0 0 1 128 24)" fill="white"/>
<rect width="2" height="13" rx="1" transform="matrix(-1 0 0 1 124.5 22)" fill="white"/>
<rect width="2" height="14" rx="1" transform="matrix(-1 0 0 1 142 21)" fill="white"/>
<rect width="2" height="20" rx="1" transform="matrix(-1 0 0 1 173.5 15)" fill="white"/>
<rect width="2" height="20" rx="1" transform="matrix(-1 0 0 1 212 15)" fill="white"/>
<rect width="2" height="20" rx="1" transform="matrix(-1 0 0 1 121 15)" fill="white"/>
<rect width="2" height="22" rx="1" transform="matrix(-1 0 0 1 205 13)" fill="white"/>
<rect width="2" height="22" rx="1" transform="matrix(-1 0 0 1 114 13)" fill="white"/>
<rect width="2" height="22" rx="1" transform="matrix(-1 0 0 1 198 13)" fill="white"/>
</svg>
