<svg width="16" height="16" viewBox="0 0 16 16" fill="none" xmlns="http://www.w3.org/2000/svg">
<path d="M7.99995 1.6C9.32543 1.6 10.4 2.67452 10.4 4V4.8H11.2C12.0836 4.8 12.8 5.51634 12.8 6.4V12C12.8 12.8837 12.0836 13.6 11.2 13.6H4.79995C3.9163 13.6 3.19995 12.8837 3.19995 12V6.4C3.19995 5.51634 3.9163 4.8 4.79995 4.8H5.59995V4C5.59995 2.67452 6.67447 1.6 7.99995 1.6ZM7.99995 8.4C7.55812 8.4 7.19995 8.75817 7.19995 9.2C7.19995 9.64183 7.55812 10 7.99995 10C8.44178 10 8.79995 9.64183 8.79995 9.2C8.79995 8.75817 8.44178 8.4 7.99995 8.4ZM7.99995 3.2C7.55812 3.2 7.19995 3.55817 7.19995 4V4.8H8.79995V4C8.79995 3.55817 8.44178 3.2 7.99995 3.2Z" fill="#6CCB5F"/>
</svg>
