<svg width="40" height="40" viewBox="0 0 40 40" fill="none" xmlns="http://www.w3.org/2000/svg">
<path d="M0 20C0 8.95431 8.95431 0 20 0C31.0457 0 40 8.95431 40 20C40 31.0457 31.0457 40 20 40C8.95431 40 0 31.0457 0 20Z" fill="white" fill-opacity="0.07"/>
<path d="M20 16C19.3096 16 18.75 15.4404 18.75 14.75C18.75 14.0596 19.3096 13.5 20 13.5C20.6904 13.5 21.25 14.0596 21.25 14.75C21.25 15.4404 20.6904 16 20 16ZM20 21.25C19.3096 21.25 18.75 20.6904 18.75 20C18.75 19.3096 19.3096 18.75 20 18.75C20.6904 18.75 21.25 19.3096 21.25 20C21.25 20.6904 20.6904 21.25 20 21.25ZM18.75 25.25C18.75 25.9404 19.3096 26.5 20 26.5C20.6904 26.5 21.25 25.9404 21.25 25.25C21.25 24.5596 20.6904 24 20 24C19.3096 24 18.75 24.5596 18.75 25.25Z" fill="white"/>
</svg>
