<svg width="12" height="13" viewBox="0 0 12 13" fill="none" xmlns="http://www.w3.org/2000/svg">
<path d="M6.99949 1.00001C6.99949 0.798976 6.87908 0.61749 6.69386 0.539339C6.50863 0.461188 6.29461 0.501573 6.15061 0.64185L3.22389 3.49273H1.49951C0.671083 3.49273 -0.000488281 4.16431 -0.000488281 4.99273V7.98172C-0.000488281 8.81015 0.671084 9.48172 1.49951 9.48172H3.22265L6.14909 12.3567C6.29277 12.4978 6.50713 12.539 6.69288 12.4611C6.87862 12.3832 6.99949 12.2014 6.99949 12V1.00001ZM8.14645 4.64646C8.34171 4.4512 8.65829 4.4512 8.85355 4.64646L10 5.79291L11.1464 4.64646C11.3417 4.4512 11.6583 4.4512 11.8536 4.64646C12.0488 4.84172 12.0488 5.15831 11.8536 5.35357L10.7071 6.50001L11.8536 7.64646C12.0488 7.84172 12.0488 8.15831 11.8536 8.35357C11.6583 8.54883 11.3417 8.54883 11.1464 8.35357L10 7.20712L8.85355 8.35357C8.65829 8.54883 8.34171 8.54883 8.14645 8.35357C7.95118 8.15831 7.95118 7.84172 8.14645 7.64646L9.29289 6.50001L8.14645 5.35357C7.95118 5.15831 7.95118 4.84172 8.14645 4.64646Z" fill="#838383"/>
</svg>
