<svg width="40" height="40" viewBox="0 0 40 40" fill="none" xmlns="http://www.w3.org/2000/svg">
<rect width="40" height="40" rx="20" fill="white" fill-opacity="0.07"/>
<path d="M18.5 13C21.5376 13 24 15.4624 24 18.5C24 19.8388 23.5217 21.0659 22.7266 22.0196L26.8536 26.1464C27.0488 26.3417 27.0488 26.6583 26.8536 26.8536C26.68 27.0271 26.4106 27.0464 26.2157 26.9114L26.1464 26.8536L22.0196 22.7266C21.0659 23.5217 19.8388 24 18.5 24C15.4624 24 13 21.5376 13 18.5C13 15.4624 15.4624 13 18.5 13ZM18.5 14C16.0147 14 14 16.0147 14 18.5C14 20.9853 16.0147 23 18.5 23C20.9853 23 23 20.9853 23 18.5C23 16.0147 20.9853 14 18.5 14Z" fill="white"/>
</svg>
