<svg width="20" height="20" viewBox="0 0 20 20" fill="none" xmlns="http://www.w3.org/2000/svg">
<path d="M13.3251 2.61785C12.3599 1.65257 10.7326 1.91665 10.1221 3.13764L8.39285 6.59609C8.22855 6.92468 7.94939 7.18155 7.60829 7.31799L4.01834 8.75397C3.35177 9.0206 3.17498 9.88191 3.68262 10.3896L6.29289 12.9998L3 16.2927V16.9998H3.70711L7 13.7069L9.61027 16.3172C10.1179 16.8248 10.9792 16.648 11.2459 15.9815L12.6818 12.3915C12.8183 12.0504 13.0751 11.7713 13.4037 11.607L16.8622 9.87775C18.0832 9.26725 18.3472 7.63996 17.382 6.67468L13.3251 2.61785Z" fill="#838383"/>
</svg>
